<?xml version="1.0" standalone="no"?><!DOCTYPE svg PUBLIC "-//W3C//DTD SVG 1.1//EN" "http://www.w3.org/Graphics/SVG/1.1/DTD/svg11.dtd"><svg t="1520956999365" class="icon" style="" viewBox="0 0 1024 1024" version="1.1" xmlns="http://www.w3.org/2000/svg" p-id="928" xmlns:xlink="http://www.w3.org/1999/xlink" width="200" height="200"><defs><style type="text/css"></style></defs><path d="M604.72373097 367.7018643l341.7581037-341.75810371 48.8121837 48.81218371-341.7581037 341.7581037z m341.7581037 624.83114667l-341.7581037-341.75810372 48.8121837-48.8121837 341.7581037 341.7581037z m-866.2014483 2.7610074l-48.8121837-48.8121837 341.7581037-341.7581037 48.74300681 48.8121837z" fill="#73777A" p-id="929"></path><path d="M581.042176 408.43734282v34.52048118h345.20966637v-69.042176H650.084352V97.74815763h-69.04338963z m0 207.12531436V581.04338963h345.20966637v69.042176H650.084352v276.16749037h-69.04338963zM25.94376059 77.51816533l48.81218371-48.8121837 341.7581037 341.7581037-48.88136059 48.8121837z" fill="#73777A" p-id="930"></path><path d="M442.957824 408.43734282v34.52048118H97.74815763v-69.042176h276.16749037V97.74815763h69.04338963z m0 207.12531436V581.04338963H97.74815763v69.042176h276.16749037v276.16749037h69.04338963z" fill="#73777A" p-id="931"></path></svg>