<?xml version="1.0" standalone="no"?><!DOCTYPE svg PUBLIC "-//W3C//DTD SVG 1.1//EN" "http://www.w3.org/Graphics/SVG/1.1/DTD/svg11.dtd"><svg t="1521093176995" class="icon" style="" viewBox="0 0 1024 1024" version="1.1" xmlns="http://www.w3.org/2000/svg" p-id="1599" xmlns:xlink="http://www.w3.org/1999/xlink" width="200" height="200"><defs><style type="text/css"></style></defs><path d="M93.4186464 93.39736107l198.12954453 0c17.14570027 0 31.23621653-14.009744 31.23621654-31.27769494 0-17.3902016-13.9879136-31.27660373-31.23621654-31.27660373l-229.4476256 0c-8.57285013 0-16.371808 3.50161707-22.03246506 9.1633664-5.7425216 5.66174827-9.20484373 13.46070613-9.20484374 22.0739424L30.86325653 291.5269056c0 17.14570027 14.009744 31.23621653 31.27660374 31.23621653 17.3902016 0 31.27769493-13.9890048 31.27769493-31.23621653L93.41755413 93.39736107zM927.478144 93.39736107L729.34859947 93.39736107c-17.16643947 0-31.23621653-14.009744-31.23621654-31.27769494 0-17.3902016 13.9890048-31.27660373 31.23621654-31.27660373l229.4476256 0c8.57285013 0 16.371808 3.50161707 22.03246506 9.1633664 5.7436128 5.66174827 9.20484373 13.46070613 9.20484374 22.0739424L990.03353387 291.5269056c0 17.14570027-14.009744 31.23621653-31.27660374 31.23621653-17.3902016 0-31.27769493-13.9890048-31.27769493-31.23621653L927.4792352 93.39736107zM93.4186464 927.45576747l198.12954453 0c17.14570027 0 31.23621653 14.0086528 31.23621654 31.27660373 0 17.3902016-13.9879136 31.27660373-31.23621654 31.27660373l-229.4476256 0c-8.57285013 0-16.371808-3.50270933-22.03246506-9.1633664-5.7425216-5.66065707-9.20484373-13.46070613-9.20484374-22.0739424L30.86325653 729.32731413c0-17.14679147 14.009744-31.2384 31.27660374-31.2384 17.3902016 0 31.27769493 13.9890048 31.27769493 31.2384L93.41755413 927.45576747zM927.478144 927.45576747L729.34859947 927.45576747c-17.16643947 0-31.23621653 14.0086528-31.23621654 31.27660373 0 17.3902016 13.9890048 31.27660373 31.23621654 31.27660373l229.4476256 0c8.57285013 0 16.371808-3.50270933 22.03246506-9.1633664 5.7436128-5.66065707 9.20484373-13.46070613 9.20484374-22.0739424L990.03353387 729.32731413c0-17.14679147-14.009744-31.2384-31.27660374-31.2384-17.3902016 0-31.27769493 13.9890048-31.27769493 31.2384L927.4792352 927.45576747z" fill="#595959" p-id="1600"></path></svg>