<?xml version="1.0" standalone="no"?><!DOCTYPE svg PUBLIC "-//W3C//DTD SVG 1.1//EN" "http://www.w3.org/Graphics/SVG/1.1/DTD/svg11.dtd"><svg t="1520957120889" class="icon" style="" viewBox="0 0 1024 1024" version="1.1" xmlns="http://www.w3.org/2000/svg" p-id="1043" xmlns:xlink="http://www.w3.org/1999/xlink" width="200" height="200"><defs><style type="text/css"></style></defs><path d="M65.51322283 65.49051847l211.33818083 0c18.28874695 0 33.31863097-14.94372693 33.31863097-33.3628746 0-18.54954837-14.92044117-33.36171065-33.31863097-33.36171064l-244.74413397 0c-9.14437347 0-17.46326187 3.73505821-23.50129607 9.77425749-6.12535637 6.03919815-9.81849998 14.35808654-9.81849999 23.54553856L-1.21252637 276.82869931c0 18.28874695 14.94372693 33.31863097 33.36171066 33.31863096 18.54954837 0 33.36287459-14.92160512 33.36287459-33.31863096L65.51205774 65.49051847zM955.17668693 65.49051847L743.8385061 65.49051847c-18.31086877 0-33.31863097-14.94372693-33.31863097-33.3628746 0-18.54954837 14.92160512-33.36171065 33.31863097-33.36171064l244.74413397 0c9.14437347 0 17.46326187 3.73505821 23.50129607 9.77425749 6.12652032 6.03919815 9.81849998 14.35808654 9.81849999 23.54553856L1021.90243613 276.82869931c0 18.28874695-14.94372693 33.31863097-33.36171066 33.31863096-18.54954837 0-33.36287459-14.92160512-33.36287459-33.31863096L955.17785088 65.49051847zM65.51322283 955.15281863l211.33818083 0c18.28874695 0 33.31863097 14.94256299 33.31863097 33.36171065 0 18.54954837-14.92044117 33.36171065-33.31863097 33.36171065l-244.74413397 0c-9.14437347 0-17.46326187-3.73622329-23.50129607-9.7742575-6.12535637-6.03803421-9.81849998-14.35808654-9.81849999-23.54553856L-1.21252637 743.81580174c0-18.2899109 14.94372693-33.32096 33.36171066-33.32096 18.54954837 0 33.36287459 14.92160512 33.36287459 33.32096L65.51205774 955.15281863zM955.17668693 955.15281863L743.8385061 955.15281863c-18.31086877 0-33.31863097 14.94256299-33.31863097 33.36171065 0 18.54954837 14.92160512 33.36171065 33.31863097 33.36171065l244.74413397 0c9.14437347 0 17.46326187-3.73622329 23.50129607-9.7742575 6.12652032-6.03803421 9.81849998-14.35808654 9.81849999-23.54553856L1021.90243613 743.81580174c0-18.2899109-14.94372693-33.32096-33.36171066-33.32096-18.54954837 0-33.36287459 14.92160512-33.36287459 33.32096L955.17785088 955.15281863z" p-id="1044"></path></svg>