<?xml version="1.0" standalone="no"?><!DOCTYPE svg PUBLIC "-//W3C//DTD SVG 1.1//EN" "http://www.w3.org/Graphics/SVG/1.1/DTD/svg11.dtd"><svg t="1521044279163" class="icon" style="" viewBox="0 0 1024 1024" version="1.1" xmlns="http://www.w3.org/2000/svg" p-id="1414" xmlns:xlink="http://www.w3.org/1999/xlink" width="200" height="200"><defs><style type="text/css"></style></defs><path d="M972.85562429 858.93625719L848.57995022 685.46812799V434.3277037c0-150.1664391-98.38490905-277.03119053-235.60596504-321.04549095 2.58907614-5.17815349 2.58907614-10.35630577 2.58907614-15.53445926 0-56.95968355-46.60337778-103.56306132-103.56306132-103.56306254s-103.56306132 46.60337778-103.56306132 103.56306254c0 5.17815349 0 10.35630577 2.58907614 15.53445926C273.80495762 157.29651317 175.42004978 284.16126461 175.42004978 434.3277037v251.14042429l-124.27567407 173.4681292c-5.17815349 7.76722963-5.17815349 18.12353539-2.58907735 25.89076503 5.17815349 10.35630577 12.94538311 15.53445925 23.30168889 15.53445926h287.3874963c12.94538311 72.49414281 75.08322016 129.45382756 152.75551645 129.45382757s139.81013333-56.95968355 152.75551645-129.45382757H952.14301275c10.35630577 0 18.12353539-5.17815349 23.30168889-12.94538312 5.17815349-10.35630577 2.58907614-20.71261275-2.58907735-28.47984117zM460.21846873 97.74775349c0-28.47984238 23.30168889-51.78153127 51.78153127-51.78153127s51.78153127 23.30168889 51.78153127 51.78153127v5.17815228c-18.12353539-2.58907614-33.65799466-5.17815349-51.78153127-5.17815228s-33.65799466 2.58907614-51.78153127 5.17815228V97.74775349z m51.78153127 880.28602429c-49.19245392 0-88.02860206-33.65799466-100.97398518-77.6722963h199.35889423c-10.35630577 44.01430164-49.19245392 77.6722963-98.38490905 77.6722963zM121.04944238 848.57995022l100.97398518-139.81013333c2.58907614-5.17815349 5.17815349-10.35630577 5.17815228-15.53445927V434.3277037c0-157.93366873 126.86475022-284.79842016 284.79842016-284.79842015s284.79842016 126.86475022 284.79842016 284.79842015v258.90765392c0 5.17815349 2.58907614 10.35630577 5.17815228 15.53445927l100.97398518 139.81013333H121.04944238z" fill="#666666" p-id="1415"></path></svg>