<?xml version="1.0" standalone="no"?><!DOCTYPE svg PUBLIC "-//W3C//DTD SVG 1.1//EN" "http://www.w3.org/Graphics/SVG/1.1/DTD/svg11.dtd"><svg t="1519723391681" class="icon" style="" viewBox="0 0 1024 1024" version="1.1" xmlns="http://www.w3.org/2000/svg" p-id="1099" xmlns:xlink="http://www.w3.org/1999/xlink" width="200" height="200"><defs><style type="text/css"></style></defs><path d="M405.61322667 732.27377778L365.56344889 732.27377778l0-60.58439111 0 0C366.36444445 480.68835555 222.18524445 502.67932445 220.58325333 502.67932445L220.14634667 502.60650667c-151.89788445 0-142.94129778 166.24298667-142.94129778 169.08288l0 60.58439111L33.95128889 732.27377778C15.96529778 732.27377778 2.27555555 745.08970667 2.27555555 761.76497778l0 228.86627555c0 16.74808889 13.68974222 29.41838222 31.67573334 29.41838222l371.66193778 0c17.98599111 0 31.96700445-12.67029333 31.96700444-29.41838222L437.58023111 761.76497778C437.58023111 745.08970667 423.5264 732.27377778 405.61322667 732.27377778zM129.63384889 671.68938667c0-0.50972445-5.60696889-114.688 88.03669333-114.688 8.30122667 0.29127111 88.91050667-4.58752 88.91050667 114.688l0 60.58439111-176.9472 0L129.63384889 671.68938667zM1021.72444445 940.96952889c0 69.54097778-88.54641778 79.08010667-88.54641778 79.08010666L652.82958222 1020.04963555l-91.7504 0c0 0-46.74901333 1.09226667-46.74901333-44.56448l-1.52917334-224.06030222C514.62144 536.32113778 457.38666667 458.26048 326.31466667 415.58926222c-37.93806222-28.39893333-53.66670222-35.60789333-53.66670222-89.34741333 0-53.73952 44.20039111-53.73952 44.2003911-53.73952s0 1.52917333 15.72864-86.94442667c15.29173333-85.85216 99.25063111-177.45692445 237.02186667-182.77262222L569.59886222 2.27555555c2.03889778 0 3.93216 0.21845333 5.97105778 0.21845334C577.82727111 2.49400889 580.01180445 2.27555555 582.34197333 2.27555555l0 0.58254223c119.78524445 6.04387555 206.00149333 97.21173333 221.22040889 182.69980444 15.80145778 88.4736 15.80145778 86.94442667 15.80145778 86.94442667s44.20039111 0 44.20039111 53.73952c0 53.73952-15.72864 72.74496-53.66670222 101.14389333C771.95946667 455.85749333 783.24622222 517.09724445 724.62791111 571.12803555c-31.31164445 28.83584-53.73952 50.60835555-53.73952 91.7504 0 40.99640889 22.13660445 50.46272 44.20039111 63.13301334s170.68487111 53.73952 240.22584889 101.21671111S1021.72444445 899.90030222 1021.72444445 940.96952889z" p-id="1100"></path></svg>