<?xml version="1.0" standalone="no"?><!DOCTYPE svg PUBLIC "-//W3C//DTD SVG 1.1//EN" "http://www.w3.org/Graphics/SVG/1.1/DTD/svg11.dtd"><svg t="1521093023461" class="icon" style="" viewBox="0 0 1024 1024" version="1.1" xmlns="http://www.w3.org/2000/svg" p-id="1192" xmlns:xlink="http://www.w3.org/1999/xlink" width="200" height="200"><defs><style type="text/css"></style></defs><path d="M850.93365623 399.02211459h-28.24447105v-84.73341437c0-172.29127498-141.22235646-310.68918518-310.68918518-310.68918518-172.29127498 0-310.68918518 138.39791021-310.68918518 310.68918518v84.73341437h-28.24447105c-62.13783703 0-112.97788541 50.84004837-112.97788541 112.97788541v395.42259954c0 62.13783703 50.84004837 112.97788541 112.97788541 112.97788542h677.86731246c62.13783703 0 112.97788541-50.84004837 112.97788541-112.97788542V512c0-62.13783703-50.84004837-112.97788541-112.97788541-112.97788541z m-593.1338981-84.73341437c0-141.22235646 112.97788541-254.20024187 254.20024187-254.20024186s254.20024187 112.97788541 254.20024187 254.20024186v84.73341437H257.79975813v-84.73341437z m649.62284141 593.13389932c0 31.06891852-25.4200248 56.48894331-56.48894331 56.4889421H173.06634377c-31.06891852 0-56.48894331-25.4200248-56.48894331-56.4889421V512c0-31.06891852 25.4200248-56.48894331 56.48894331-56.48894331h677.86731246c31.06891852 0 56.48894331 25.4200248 56.48894331 56.48894331v395.42259954z" fill="#595959" p-id="1193"></path><path d="M512 610.85564928c-31.06891852 0-56.48894331 25.4200248-56.48894331 56.48894331 0 19.77112986 11.29778866 39.54225971 28.24447226 48.01560091v64.96228451c0 14.12223613 11.29778866 28.24447105 28.24447105 28.24447105s28.24447105-14.12223613 28.24447105-28.24447105v-64.96228451c16.94668239-8.47334119 28.24447105-28.24447105 28.24447226-48.01560091 0-31.06891852-25.4200248-56.48894331-56.48894331-56.48894331z" fill="#595959" p-id="1194"></path></svg>