<?xml version="1.0" standalone="no"?><!DOCTYPE svg PUBLIC "-//W3C//DTD SVG 1.1//EN" "http://www.w3.org/Graphics/SVG/1.1/DTD/svg11.dtd"><svg t="1519818293095" class="icon" style="" viewBox="0 0 1024 1024" version="1.1" xmlns="http://www.w3.org/2000/svg" p-id="835" xmlns:xlink="http://www.w3.org/1999/xlink" width="200" height="200"><defs><style type="text/css"></style></defs><path d="M947.64786347 412.57158293l-81.3118624 0c-8.16520747-28.5782272-19.5624768-55.7955872-33.85159147-81.1417536l58.51732373-58.51732373c26.36681707-26.36681707 26.36681707-68.89394133 0-95.26075947l-47.63037973-47.63037973c-26.36681707-26.36681707-68.89394133-26.36681707-95.26075947 0l-59.5379744 59.5379744c-23.81518933-13.09835413-49.33146453-23.304864-76.0384992-30.7896384L612.53412267 77.45784107c0-37.08365227-29.93909547-67.0227488-67.0227488-67.0227488l-67.0227488 0c-37.08365227 0-67.0227488 29.93909547-67.0227488 67.0227488l0 81.1417536c-27.55757653 7.82499093-53.9243936 18.71193493-78.59012587 32.3206144l-61.2390592-61.2390592c-26.36681707-26.36681707-68.89394133-26.36681707-95.26075947 0l-47.63037973 47.63037973c-26.36681707 26.36681707-26.36681707 68.89394133 0 95.26075947l61.2390592 61.2390592c-13.77878827 24.66573227-24.49562347 50.86244053-32.3206144 78.59012586L76.35213653 412.40147413c-37.08365227 0-67.0227488 29.93909547-67.0227488 67.0227488l0 67.0227488c0 37.08365227 29.93909547 67.0227488 67.0227488 67.0227488l81.3118624 0c7.4847744 26.53692587 17.69128427 52.2233088 30.7896384 76.0384992l-59.5379744 59.5379744c-26.36681707 26.36681707-26.36681707 68.89394133 0 95.26075947l47.63037974 47.63037973c26.36681707 26.36681707 68.89394133 26.36681707 95.26075946 0l58.51732374-58.51732373c25.3461664 14.4592224 52.5635264 25.85649173 81.1417536 33.85159147l0 81.3118624c0 37.08365227 29.93909547 67.0227488 67.0227488 67.0227488l67.0227488 0c37.08365227 0 67.0227488-29.93909547 67.0227488-67.0227488L612.53412267 867.44170667c27.55757653-7.82499093 53.9243936-18.71193493 78.59012586-32.3206144l56.98634667 56.98634666c26.36681707 26.36681707 68.89394133 26.36681707 95.26075947 0l47.63037973-47.63037973c26.36681707-26.36681707 26.36681707-68.89394133 0-95.26075947L834.01538667 692.22995413c13.77878827-24.66573227 24.49562347-50.86244053 32.3206144-78.59012586l81.3118624 0c37.08365227 0 67.0227488-30.10920427 67.0227488-67.0227488L1014.67061227 479.59433067C1014.67061227 442.6807872 984.561408 412.57158293 947.64786347 412.57158293M512 714.17394987c-111.08084907 0-201.06824533-89.9873952-201.06824533-201.06824534 0-111.08084907 89.9873952-201.06824533 201.06824533-201.06824533 111.08084907 0 201.06824533 89.9873952 201.06824533 201.06824533C713.06824533 624.18655467 623.08084907 714.17394987 512 714.17394987M512 412.57158293c-55.45537067 0-100.53412267 45.078752-100.53412267 100.53412267 0 55.45537067 45.078752 100.53412267 100.53412267 100.53412267 55.45537067 0 100.53412267-45.078752 100.53412267-100.53412267C612.53412267 457.65033493 567.45537067 412.57158293 512 412.57158293" p-id="836"></path></svg>